# xmcd
#
# Track frame offsets:
#	150
#	15467
#	32875
#	48302
#	64612
#	79852
#	95542
#	114080
#	130825
#	141635
#	162757
#	180380
#	194137
#	208495
#	225940
#
# Disc length: 3225 seconds
#
# Revision: 1
# Processed by: cddbd v1.5.2PL0 Copyright (c) Steve Scherf et al.
# Submitted via: EasyCDDAExtractor 15.3.0.1
#
DISCID=cb0c970f
DTITLE=Yuri - 30 Exitos Insuperables - CD 2
DYEAR=2003
DGENRE=Latin
TTITLE0=Tiempos Mejores
TTITLE1=Es Ella Mas Que Yo
TTITLE2=Solos
TTITLE3=Piedad
TTITLE4=Yo Te Amo, Te Amo
TTITLE5=Mañana
TTITLE6=Amores Clandestinos
TTITLE7=Bubalu
TTITLE8=Llena De Dulzura
TTITLE9=Este Amor
TTITLE10=Cuando Baja La Marea
TTITLE11=Pesado
TTITLE12=Amo
TTITLE13=No Habra
TTITLE14=Primer Amor
EXTD=
EXTT0=
EXTT1=
EXTT2=
EXTT3=
EXTT4=
EXTT5=
EXTT6=
EXTT7=
EXTT8=
EXTT9=
EXTT10=
EXTT11=
EXTT12=
EXTT13=
EXTT14=
PLAYORDER=
